<?xml version="1.0" standalone="no"?>
<!DOCTYPE svg PUBLIC "-//W3C//DTD SVG 20010904//EN"
 "http://www.w3.org/TR/2001/REC-SVG-20010904/DTD/svg10.dtd">
<svg version="1.0" xmlns="http://www.w3.org/2000/svg"
 width="192.000000pt" height="192.000000pt" viewBox="0 0 192.000000 192.000000"
 preserveAspectRatio="xMidYMid meet">

<g transform="translate(0.000000,192.000000) scale(0.100000,-0.100000)"
fill="#000000" stroke="none">
<path d="M1358 1913 c6 -2 18 -2 25 0 6 3 1 5 -13 5 -14 0 -19 -2 -12 -5z"/>
<path d="M1283 1903 c9 -2 25 -2 35 0 9 3 1 5 -18 5 -19 0 -27 -2 -17 -5z"/>
<path d="M1408 1903 c7 -3 16 -2 19 1 4 3 -2 6 -13 5 -11 0 -14 -3 -6 -6z"/>
<path d="M1183 1893 c15 -2 37 -2 50 0 12 2 0 4 -28 4 -27 0 -38 -2 -22 -4z"/>
<path d="M1488 1873 c7 -3 16 -2 19 1 4 3 -2 6 -13 5 -11 0 -14 -3 -6 -6z"/>
<path d="M1058 1863 c6 -2 18 -2 25 0 6 3 1 5 -13 5 -14 0 -19 -2 -12 -5z"/>
<path d="M1543 1863 c9 -2 25 -2 35 0 9 3 1 5 -18 5 -19 0 -27 -2 -17 -5z"/>
<path d="M1004 1844 c-18 -14 -18 -14 6 -3 31 14 36 19 24 19 -6 0 -19 -7 -30
-16z"/>
<path d="M1630 1840 c8 -5 20 -10 25 -10 6 0 3 5 -5 10 -8 5 -19 10 -25 10 -5
0 -3 -5 5 -10z"/>
<path d="M1146 1772 c-63 -93 -96 -173 -96 -242 0 -30 4 -61 9 -69 6 -9 7 8 4
45 -7 77 21 157 89 256 27 39 47 72 45 74 -2 2 -25 -27 -51 -64z"/>
<path d="M960 1816 c-6 -8 -28 -17 -48 -19 l-37 -4 36 -1 c25 -1 42 4 54 18
10 11 16 20 13 20 -3 0 -11 -6 -18 -14z"/>
<path d="M808 1773 c7 -3 16 -2 19 1 4 3 -2 6 -13 5 -11 0 -14 -3 -6 -6z"/>
<path d="M1343 1745 c-28 -15 -57 -33 -65 -42 -7 -9 12 -2 43 16 46 26 69 32
125 34 38 1 80 -2 94 -6 l25 -8 -25 15 c-41 25 -137 20 -197 -9z"/>
<path d="M724 1744 c-18 -14 -18 -14 6 -3 31 14 36 19 24 19 -6 0 -19 -7 -30
-16z"/>
<path d="M1780 1746 c0 -2 8 -10 18 -17 15 -13 16 -12 3 4 -13 16 -21 21 -21
13z"/>
<path d="M632 1673 l-57 -56 60 53 c33 30 62 55 64 57 2 2 1 3 -3 3 -4 0 -33
-25 -64 -57z"/>
<path d="M742 1668 c-38 -58 -88 -168 -77 -168 3 0 18 29 34 64 16 36 44 86
61 111 18 26 30 48 27 51 -2 3 -23 -24 -45 -58z"/>
<path d="M1835 1666 c10 -14 19 -26 22 -26 7 0 -17 39 -28 46 -6 3 -3 -5 6
-20z"/>
<path d="M1661 1665 c61 -22 123 -56 152 -83 18 -17 27 -21 27 -11 0 33 -129
109 -185 108 l-30 0 36 -14z"/>
<path d="M935 1636 c-9 -20 -20 -60 -25 -88 -12 -60 -13 -178 -2 -178 4 0 5
22 4 49 -5 63 12 172 32 213 9 17 14 33 11 36 -3 3 -12 -12 -20 -32z"/>
<path d="M1557 1663 c-4 -3 9 -35 28 -71 34 -60 35 -66 20 -88 -17 -26 -22
-149 -5 -139 6 3 10 22 10 42 0 52 20 111 40 116 9 2 44 -4 78 -15 75 -23 104
-57 110 -134 5 -65 -23 -131 -67 -157 -30 -18 -68 -22 -87 -9 -17 11 -44 68
-44 92 0 11 -5 20 -10 20 -18 0 -23 -30 -11 -58 11 -27 11 -27 -18 4 -15 17
-31 38 -33 45 -3 8 -9 11 -13 7 -4 -4 1 -20 11 -35 11 -15 24 -37 30 -48 15
-27 91 -65 130 -65 49 0 100 49 119 113 20 69 19 110 -6 158 -11 23 -19 42
-17 43 2 2 18 8 36 16 19 7 29 17 24 22 -5 5 -20 4 -36 -2 -41 -15 -78 -12
-130 10 -48 22 -63 37 -23 25 12 -3 36 -8 52 -10 28 -4 29 -4 11 10 -22 17
-96 20 -96 5 0 -25 -24 -5 -59 50 -20 33 -41 57 -44 53z"/>
<path d="M1201 1623 c-18 -63 -13 -156 10 -210 11 -26 31 -82 45 -123 21 -66
73 -169 74 -146 0 4 -13 36 -29 70 -16 33 -35 84 -42 111 -7 28 -23 73 -36
100 -25 54 -30 134 -13 194 5 19 8 37 6 39 -3 2 -9 -13 -15 -35z"/>
<path d="M1445 1607 c-4 -18 -7 -93 -8 -167 -2 -127 -1 -137 22 -168 13 -18
25 -31 28 -28 3 3 -5 19 -17 37 -22 30 -23 36 -17 195 6 161 4 196 -8 131z"/>
<path d="M506 1558 c-44 -45 -50 -55 -25 -38 19 13 36 28 37 33 2 4 15 21 29
37 40 48 23 34 -41 -32z"/>
<path d="M1891 1550 c0 -8 4 -24 9 -35 5 -13 9 -14 9 -5 0 8 -4 24 -9 35 -5
13 -9 14 -9 5z"/>
<path d="M1551 1514 c-22 -28 -39 -110 -25 -124 5 -5 9 13 10 41 1 35 8 59 23
80 27 36 20 39 -8 3z"/>
<path d="M455 1461 c-3 -6 -7 -47 -10 -93 l-4 -83 9 80 c5 43 12 85 14 92 6
15 0 17 -9 4z"/>
<path d="M379 1433 c-13 -16 -12 -17 4 -4 9 7 17 15 17 17 0 8 -8 3 -21 -13z"/>
<path d="M1721 1427 c-14 -6 -26 -19 -28 -27 -4 -12 -3 -12 5 -1 7 10 11 10
14 1 3 -9 9 -8 21 4 9 10 17 12 17 6 0 -6 -7 -13 -15 -16 -8 -4 -15 -12 -15
-20 0 -8 -4 -14 -10 -14 -5 0 -7 -8 -5 -17 3 -10 -1 -4 -9 12 l-15 30 -1 -42
c0 -84 39 -120 98 -89 36 19 42 33 42 101 0 78 -36 105 -99 72z m70 -16 c7 11
9 10 10 -6 4 -70 -9 -115 -33 -115 -7 0 -7 4 0 13 5 6 14 29 20 49 9 33 8 38
-9 43 -20 7 -24 17 -11 29 4 4 9 0 11 -10 2 -14 5 -14 12 -3z m-81 -101 c-12
-8 -12 -10 3 -16 9 -3 17 -15 17 -26 0 -11 -5 -16 -11 -13 -6 4 -8 9 -5 12 3
3 -1 12 -9 20 -20 19 -19 33 3 33 14 0 15 -2 2 -10z"/>
<path d="M771 1370 c-1 -64 33 -220 63 -285 33 -72 40 -71 10 3 -26 64 -51
165 -63 262 -8 58 -9 60 -10 20z"/>
<path d="M1901 1365 c-1 -16 -8 -43 -16 -58 -8 -15 -17 -45 -21 -65 -11 -61
-43 -113 -117 -190 -127 -130 -197 -147 -325 -77 -144 80 -259 190 -312 299
-43 89 -55 82 -15 -9 31 -69 104 -149 210 -227 115 -87 182 -118 250 -118 31
0 66 5 78 12 33 17 96 68 133 108 21 22 34 30 34 20 0 -8 20 28 45 81 41 90
73 213 62 241 -3 7 -6 0 -6 -17z"/>
<path d="M280 1305 c-24 -25 -42 -45 -39 -45 3 0 25 20 49 45 24 25 42 45 39
45 -3 0 -25 -20 -49 -45z"/>
<path d="M555 1329 c-38 -103 -43 -174 -20 -259 9 -30 19 -81 24 -113 7 -44
20 -71 54 -117 25 -33 53 -83 63 -112 9 -29 25 -70 35 -90 l19 -37 -50 25
c-42 21 -55 34 -79 84 -17 33 -45 81 -63 107 -18 26 -36 52 -40 57 -4 6 -10 8
-13 4 -4 -4 12 -34 35 -68 23 -33 56 -89 73 -122 25 -48 39 -64 64 -72 49 -17
49 -24 -1 -37 -26 -6 -65 -25 -89 -43 -74 -54 -81 -56 -117 -35 -29 18 -30 20
-15 41 8 13 15 27 15 33 -1 5 -8 -3 -16 -18 -16 -29 -34 -28 -34 1 0 13 -2 14
-9 4 -14 -22 -34 13 -28 48 4 16 2 32 -3 35 -27 17 -42 81 -35 157 4 49 3 78
-4 83 -7 4 -11 -5 -12 -22 l-1 -28 -13 30 c-18 38 -18 99 -1 148 16 44 12 48
-9 7 -22 -42 -19 -137 5 -185 11 -22 20 -59 20 -84 0 -25 9 -63 19 -85 36 -77
33 -163 -7 -208 -18 -21 -26 -22 -44 -5 -7 7 -33 28 -58 47 -25 19 -48 39 -52
45 -12 16 -9 58 8 108 15 43 17 46 45 40 16 -3 29 -1 29 5 0 5 -14 12 -32 16
-17 3 -37 11 -45 17 -17 15 -17 86 2 139 17 49 19 64 6 55 -6 -3 -17 -39 -26
-80 -16 -72 -16 -77 2 -113 16 -33 17 -43 6 -68 -17 -40 -16 -106 2 -140 14
-27 13 -29 -25 -64 -22 -20 -40 -42 -40 -48 0 -14 42 -54 48 -47 3 3 -5 14
-17 24 -25 21 -21 41 8 41 9 0 22 5 29 12 6 6 14 10 16 7 8 -8 -29 -156 -43
-173 -21 -25 -25 -12 -7 23 15 28 15 31 -4 41 -16 8 -21 6 -31 -12 -11 -21
-11 -22 5 -9 28 23 31 3 4 -27 -25 -26 -73 -112 -63 -112 2 0 16 23 31 51 14
28 28 49 30 46 3 -3 -4 -25 -16 -49 l-21 -43 33 38 c18 20 38 37 44 37 6 0 16
10 23 23 l12 22 -5 -23 c-4 -21 3 -26 31 -23 7 1 13 -16 16 -41 l4 -43 1 46
c2 41 5 48 27 53 16 4 32 20 42 41 16 34 16 36 -5 65 -30 40 -28 50 13 50 37
0 44 -14 25 -50 -8 -16 -8 -18 5 -14 11 5 15 -1 16 -22 1 -23 3 -24 6 -7 3 13
10 20 18 17 13 -5 9 -44 -5 -44 -5 0 -7 -8 -5 -18 2 -9 4 -19 4 -22 1 -2 8 5
16 16 11 17 22 20 50 17 24 -2 34 0 30 7 -3 5 -17 10 -30 10 l-25 0 22 45 c18
37 27 45 50 45 31 0 33 3 16 29 -11 19 -5 51 10 51 12 0 13 -65 2 -95 -5 -14
-16 -25 -25 -25 -8 0 -15 -4 -15 -10 0 -5 8 -6 17 -3 12 5 15 2 10 -10 -3 -9
-2 -17 3 -17 14 0 30 35 30 64 0 14 6 29 13 33 19 12 47 55 47 73 0 8 -12 -5
-27 -29 -23 -38 -27 -42 -33 -25 -7 20 22 69 47 78 8 3 30 -1 50 -9 19 -8 54
-14 77 -14 24 1 31 3 16 6 -48 7 -110 26 -110 33 0 4 19 13 43 19 23 7 47 17
53 22 7 6 17 2 28 -9 18 -21 23 -81 13 -152 -7 -45 -7 -45 8 -15 7 17 19 54
25 82 14 65 30 69 30 7 0 -49 15 -52 25 -4 7 30 7 30 37 14 30 -15 30 -17 25
-74 -3 -31 -13 -69 -22 -84 -25 -38 -10 -45 25 -11 38 37 54 86 47 147 -6 44
-4 49 11 43 34 -14 52 -17 52 -8 0 5 -19 15 -42 23 l-43 15 0 60 0 60 70 3
c103 4 105 21 2 19 -97 -2 -103 -8 -91 -87 7 -43 4 -46 -28 -29 -15 8 -18 17
-14 37 l5 27 -11 -25 c-7 -14 -13 -26 -14 -28 -4 -8 -33 12 -37 26 -3 10 -3
-3 -1 -28 1 -25 0 -38 -4 -30 -4 8 -17 15 -30 15 -25 0 -33 18 -84 172 -12 39
-35 80 -61 109 -34 39 -42 56 -49 108 -9 65 -11 232 -3 306 4 45 4 45 -6 10
-6 -19 -11 -82 -11 -140 l-1 -105 -13 50 c-19 69 -17 113 6 186 10 35 17 65
15 68 -3 2 -7 -2 -10 -10z m284 -766 c0 -10 -4 -27 -9 -38 -7 -16 -9 -13 -9
18 -1 20 4 37 9 37 6 0 10 -8 9 -17z m73 -17 c4 -6 7 -31 7 -56 l-1 -45 -8 38
c-4 20 -18 49 -31 63 l-24 26 25 -7 c14 -4 28 -13 32 -19z m-133 -13 c0 -25
-1 -26 -9 -8 -12 27 -12 35 0 35 6 0 10 -12 9 -27z m108 -9 c-7 -7 -37 7 -37
17 0 6 9 5 21 -1 11 -7 19 -14 16 -16z m-496 2 c11 6 12 -7 1 -21 -4 -5 -16
-17 -27 -25 -18 -15 -19 -14 -3 9 9 13 15 28 14 35 -2 6 -1 8 1 3 3 -4 9 -5
14 -1z m29 -50 c0 -30 -2 -33 -27 -30 l-28 4 28 -12 c30 -13 32 -22 14 -54
-10 -17 -17 -20 -35 -13 -20 8 -22 13 -16 46 5 30 46 93 61 93 2 0 3 -15 3
-34z m-230 -2 c-8 -8 -23 -20 -34 -25 -15 -7 -13 -3 7 15 31 29 47 35 27 10z
m16 -61 c-20 -58 -20 -66 0 -30 8 15 19 25 24 22 16 -10 12 -81 -5 -95 -25
-20 -41 -5 -40 36 1 48 29 155 33 131 2 -10 -3 -39 -12 -64z m254 52 c0 -23
-45 -125 -55 -125 -2 0 3 16 11 35 7 19 14 53 14 75 0 29 4 40 15 40 9 0 15
-9 15 -25z m476 -49 c-3 -17 -17 -44 -31 -61 l-25 -30 25 49 c14 27 26 65 26
85 1 26 3 29 6 12 3 -13 2 -38 -1 -55z m-679 -38 c-2 -18 -4 -6 -4 27 0 33 2
48 4 33 2 -15 2 -42 0 -60z m-20 50 c-3 -8 -6 -5 -6 6 -1 11 2 17 5 13 3 -3 4
-12 1 -19z m247 7 c3 -9 0 -15 -9 -15 -9 0 -12 6 -9 15 4 8 7 15 9 15 2 0 5
-7 9 -15z m-194 -114 c-7 -18 -23 -34 -42 -40 -44 -16 -44 -15 -4 29 20 22 36
45 36 52 0 9 3 9 11 1 9 -9 9 -19 -1 -42z"/>
<path d="M1529 1198 c-8 -54 -12 -104 -7 -110 5 -8 8 -3 8 15 0 16 5 47 11 71
6 23 9 60 7 82 -2 30 -6 18 -19 -58z"/>
<path d="M209 1223 l-24 -28 28 24 c25 23 32 31 24 31 -2 0 -14 -12 -28 -27z"/>
<path d="M1707 1124 c-10 -19 -31 -43 -47 -52 -29 -17 -39 -32 -21 -32 25 0
101 86 101 115 0 17 -19 0 -33 -31z"/>
<path d="M340 1084 c35 -7 98 -9 94 -2 -3 5 -29 7 -57 7 -29 -1 -45 -3 -37 -5z"/>
<path d="M667 1051 c28 -9 72 -34 97 -55 25 -20 46 -33 46 -28 0 12 -83 72
-123 90 -15 6 -38 12 -50 12 -12 -1 1 -9 30 -19z"/>
<path d="M1170 1050 c0 -11 49 -48 105 -79 l40 -22 -29 23 c-75 60 -116 87
-116 78z"/>
<path d="M234 950 c2 -77 8 -114 21 -138 9 -18 19 -31 22 -29 2 3 -3 20 -13
39 -11 21 -20 69 -25 133 l-7 100 2 -105z"/>
<path d="M958 1035 c12 -24 60 -69 122 -115 25 -19 72 -59 105 -90 58 -55 122
-97 132 -86 3 2 -13 14 -35 25 -22 11 -58 38 -82 61 -23 22 -63 57 -88 77 -26
20 -73 62 -106 92 -32 31 -54 47 -48 36z"/>
<path d="M1773 1003 c-13 -19 -23 -40 -23 -46 0 -7 12 7 26 31 31 52 28 64 -3
15z"/>
<path d="M481 983 c0 -30 3 -53 9 -53 11 0 11 31 0 75 -7 26 -8 22 -9 -22z"/>
<path d="M103 965 c0 -22 2 -30 4 -17 2 12 2 30 0 40 -3 9 -5 -1 -4 -23z"/>
<path d="M333 963 c-7 -2 -13 -9 -13 -14 0 -6 9 -5 21 2 12 6 42 9 65 6 24 -2
44 -1 44 4 0 9 -96 11 -117 2z"/>
<path d="M75 869 c-13 -56 -11 -197 3 -211 6 -6 12 -20 12 -29 0 -9 7 -20 16
-23 27 -10 29 2 6 27 -11 12 -25 35 -31 50 -15 40 -14 121 3 161 8 18 10 39 6
46 -5 8 -10 0 -15 -21z"/>
<path d="M854 887 c10 -7 33 -23 50 -36 25 -19 24 -17 -6 13 -21 20 -43 36
-50 35 -7 0 -5 -5 6 -12z"/>
<path d="M1742 880 c0 -14 2 -19 5 -12 2 6 2 18 0 25 -3 6 -5 1 -5 -13z"/>
<path d="M1353 873 c42 -2 112 -2 155 0 42 1 7 3 -78 3 -85 0 -120 -2 -77 -3z"/>
<path d="M961 863 c1 -5 24 -28 52 -53 29 -27 45 -36 39 -24 -11 20 -77 84
-87 84 -3 0 -5 -3 -4 -7z"/>
<path d="M1730 844 c0 -6 -7 -19 -15 -30 -13 -16 -14 -16 -9 -1 3 9 2 17 -3
17 -10 0 -35 -71 -28 -78 8 -8 26 11 46 50 11 22 18 43 15 46 -3 3 -6 1 -6 -4z"/>
<path d="M1570 807 c-100 -50 -175 -95 -195 -117 -25 -27 -9 -25 29 3 17 13
46 29 65 35 19 7 56 26 82 42 26 17 64 39 85 50 26 13 32 19 19 19 -11 0 -49
-15 -85 -32z"/>
<path d="M945 720 c-10 -11 -13 -20 -8 -20 13 0 38 29 31 35 -3 3 -13 -4 -23
-15z"/>
<path d="M1140 661 c0 -5 4 -11 9 -13 4 -1 34 -26 65 -55 57 -52 57 -52 30
-59 -14 -4 -51 -22 -83 -41 -50 -31 -62 -34 -111 -30 -30 2 -63 8 -72 12 -11
4 -18 3 -18 -3 0 -13 55 -32 94 -32 25 0 37 -9 61 -43 16 -23 37 -55 45 -72 9
-18 22 -29 33 -29 9 1 17 -2 17 -8 0 -5 4 -7 9 -4 5 4 12 0 15 -6 2 -7 4 -4 3
7 -1 11 3 20 8 20 6 0 9 -11 8 -25 l-3 -25 10 24 c9 19 13 21 25 11 13 -11 14
-10 10 3 -4 8 -2 18 4 22 7 4 11 -7 11 -30 0 -26 -3 -34 -12 -29 -7 4 -10 4
-6 0 4 -5 2 -20 -3 -35 -9 -24 -8 -25 6 -7 8 11 15 24 15 29 0 5 8 6 18 2 14
-5 15 -4 5 6 -7 7 -13 24 -13 37 0 21 2 22 15 12 8 -7 15 -20 16 -29 1 -30 18
22 17 54 l0 30 -7 -29 c-6 -28 -7 -28 -21 -11 -13 17 -13 18 0 10 12 -6 13 -5
3 6 -16 16 -17 46 -1 55 6 4 17 -1 24 -10 12 -17 13 -17 17 1 2 10 3 0 2 -22
-1 -22 0 -32 2 -22 6 22 23 22 24 0 0 -12 4 -8 11 10 10 29 48 39 48 13 0 -8
4 -18 10 -21 6 -4 7 1 4 12 -5 15 -4 15 4 3 6 -8 8 -18 6 -22 -3 -4 -1 -16 5
-25 8 -15 10 -14 17 12 4 18 3 30 -3 32 -6 2 -9 14 -6 26 4 18 3 19 -7 7 -9
-12 -10 -10 -5 13 4 19 2 26 -5 22 -5 -3 -10 -14 -10 -23 0 -13 -2 -13 -15 4
-15 19 -15 19 -8 0 5 -15 3 -18 -9 -13 -10 3 -19 0 -22 -9 -8 -20 -26 -8 -26
18 0 16 -4 19 -25 14 -30 -8 -45 16 -45 68 0 30 4 36 21 36 11 0 17 5 14 10
-3 6 -16 10 -27 10 -25 0 -77 37 -136 96 -41 43 -62 54 -62 35z m170 -186 c3
-22 9 -45 13 -52 15 -23 -4 -90 -28 -101 -14 -7 -26 -7 -32 -1 -6 6 -23 4 -46
-6 -37 -15 -37 -15 -49 12 -7 16 -25 45 -40 67 -29 40 -29 56 0 56 10 0 34 11
55 25 84 58 120 58 127 0z"/>
<path d="M1636 653 c-6 -14 -5 -15 5 -6 7 7 10 15 7 18 -3 3 -9 -2 -12 -12z"/>
<path d="M1365 625 c-16 -7 -43 -11 -60 -8 -23 4 -27 2 -15 -6 21 -15 56 -14
90 4 50 26 38 33 -15 10z"/>
<path d="M1597 610 c-14 -11 -30 -20 -36 -20 -6 0 -11 -4 -11 -10 0 -6 9 -6
24 0 17 6 26 5 30 -3 2 -7 5 -3 5 9 1 11 6 25 13 32 19 19 3 14 -25 -8z"/>
<path d="M81 584 c0 -11 3 -14 6 -6 3 7 2 16 -1 19 -3 4 -6 -2 -5 -13z"/>
<path d="M1545 500 l-49 -55 54 52 c30 29 52 54 50 56 -3 1 -27 -22 -55 -53z"/>
<path d="M81 474 c0 -11 3 -14 6 -6 3 7 2 16 -1 19 -3 4 -6 -2 -5 -13z"/>
<path d="M633 473 c15 -2 37 -2 50 0 12 2 0 4 -28 4 -27 0 -38 -2 -22 -4z"/>
<path d="M680 444 c0 -8 32 -33 43 -34 5 0 5 4 2 10 -8 13 -45 33 -45 24z"/>
<path d="M783 423 c-30 -11 -10 -20 28 -12 22 5 44 7 50 4 5 -4 9 -1 9 4 0 11
-64 14 -87 4z"/>
<path d="M1062 405 c0 -16 2 -22 5 -12 2 9 2 23 0 30 -3 6 -5 -1 -5 -18z"/>
<path d="M540 399 c0 -9 48 -24 55 -17 2 2 -9 9 -25 15 -17 6 -30 7 -30 2z"/>
<path d="M639 369 c30 -9 56 -30 143 -111 10 -10 18 -15 18 -12 0 3 -22 27
-49 53 -27 25 -50 51 -52 57 -2 7 -24 14 -49 18 -43 5 -43 5 -11 -5z"/>
<path d="M556 353 c-6 -14 -5 -15 5 -6 7 7 10 15 7 18 -3 3 -9 -2 -12 -12z"/>
<path d="M965 322 c-22 -2 -44 -8 -50 -13 -7 -7 6 -8 40 -4 74 11 81 22 10 17z"/>
<path d="M800 304 l-25 -15 25 7 c14 3 29 10 35 15 15 14 -7 10 -35 -7z"/>
<path d="M1466 307 c3 -10 9 -15 12 -12 3 3 0 11 -7 18 -10 9 -11 8 -5 -6z"/>
<path d="M1390 290 c-6 -11 -8 -20 -6 -20 3 0 10 9 16 20 6 11 8 20 6 20 -3 0
-10 -9 -16 -20z"/>
<path d="M69 283 c-13 -16 -12 -17 4 -4 9 7 17 15 17 17 0 8 -8 3 -21 -13z"/>
<path d="M996 265 c-9 -13 -16 -31 -16 -40 0 -8 -9 -15 -19 -15 -11 0 -22 -6
-25 -12 -3 -7 -4 0 -1 15 4 22 3 27 -7 21 -21 -13 -48 -12 -48 3 0 7 -7 13
-15 13 -7 0 -18 8 -24 17 -8 16 -10 14 -16 -10 -4 -15 -11 -27 -16 -27 -5 0
-5 -8 -2 -17 5 -14 8 -12 16 10 9 28 21 34 33 16 3 -6 -1 -18 -9 -26 -14 -15
-14 -18 8 -35 31 -24 47 -23 43 5 -4 35 16 31 22 -4 l5 -32 14 26 c23 43 40
33 44 -25 3 -46 4 -43 5 20 1 47 8 81 18 97 9 14 14 25 11 25 -2 0 -12 -11
-21 -25z m-106 -87 c0 -12 -14 -10 -27 3 -6 6 -9 18 -6 27 5 13 8 12 20 -4 7
-10 13 -21 13 -26z"/>
<path d="M1463 245 c-9 -20 -8 -25 2 -25 7 0 15 11 17 25 7 32 -4 32 -19 0z"/>
<path d="M501 253 c-1 -7 -8 -10 -17 -6 -9 3 -20 0 -24 -7 -7 -11 -16 -11 -44
-3 -32 10 -36 9 -36 -8 0 -13 5 -17 17 -12 12 5 15 2 10 -9 -3 -9 -11 -36 -18
-59 -7 -24 -16 -49 -20 -54 -4 -6 -4 -17 1 -25 6 -8 10 -26 11 -40 1 -21 2
-20 9 8 4 18 6 41 3 51 -5 19 26 136 33 128 4 -4 -5 -54 -19 -108 -2 -8 -2
-10 1 -5 2 4 8 2 13 -5 6 -9 9 4 9 36 0 65 14 88 28 49 l10 -29 1 38 c1 20 6
37 11 37 6 0 10 -6 10 -12 0 -7 5 -5 11 5 6 10 8 23 5 30 -3 9 -5 9 -5 0z"/>
<path d="M1200 240 c6 -11 13 -20 16 -20 2 0 0 9 -6 20 -6 11 -13 20 -16 20
-2 0 0 -9 6 -20z"/>
<path d="M1362 215 c0 -16 2 -22 5 -12 2 9 2 23 0 30 -3 6 -5 -1 -5 -18z"/>
<path d="M1342 205 c0 -16 2 -22 5 -12 2 9 2 23 0 30 -3 6 -5 -1 -5 -18z"/>
<path d="M1449 187 c-16 -28 -5 -30 19 -4 18 19 19 24 7 24 -9 0 -21 -9 -26
-20z"/>
<path d="M481 184 c0 -11 3 -14 6 -6 3 7 2 16 -1 19 -3 4 -6 -2 -5 -13z"/>
<path d="M1250 191 c0 -6 5 -13 10 -16 6 -3 10 1 10 9 0 9 -4 16 -10 16 -5 0
-10 -4 -10 -9z"/>
<path d="M110 157 c0 -11 1 -18 3 -16 1 2 8 11 15 20 9 13 9 16 -3 16 -8 0
-15 -9 -15 -20z"/>
<path d="M946 157 c3 -10 9 -15 12 -12 3 3 0 11 -7 18 -10 9 -11 8 -5 -6z"/>
<path d="M1330 152 c0 -12 3 -12 15 -2 8 7 15 13 15 15 0 1 -7 2 -15 2 -8 0
-15 -7 -15 -15z"/>
<path d="M362 130 c0 -19 2 -27 5 -17 2 9 2 25 0 35 -3 9 -5 1 -5 -18z"/>
<path d="M481 148 c0 -9 -4 -25 -7 -35 -5 -17 -5 -17 6 0 6 10 9 25 7 35 -4
15 -5 15 -6 0z"/>
<path d="M901 130 c0 -8 4 -24 9 -35 l9 -20 0 20 c0 11 -4 27 -9 35 -9 13 -10
13 -9 0z"/>
<path d="M486 91 c-3 -4 6 -19 21 -32 l26 -24 -17 33 c-17 34 -22 37 -30 23z"/>
<path d="M437 78 c-3 -10 2 -26 14 -40 11 -13 17 -17 14 -10 -4 8 -10 25 -14
40 -6 21 -9 23 -14 10z"/>
<path d="M940 42 c0 -12 3 -12 15 -2 8 7 15 13 15 15 0 1 -7 2 -15 2 -8 0 -15
-7 -15 -15z"/>
</g>
</svg>
